<svg xmlns="http://www.w3.org/2000/svg" version="1.1" xmlns:xlink="http://www.w3.org/1999/xlink" xmlns:svgjs="http://svgjs.dev/svgjs" width="1700" height="55" preserveAspectRatio="none" viewBox="0 0 1700 55"><g mask="url(&quot;#SvgjsMask1031&quot;)" fill="none"><path d="M56 10.05C54.68 10.05 53.96 11.79 53.67 14C52.77 20.76 52.75 21.22 53.61 28C53.92 30.45 54.12 32.47 56 32.47C59.52 32.47 63.76 31.6 64.4 28C65.4 22.36 62.4 20.68 59.28 14C58.2 11.7 57.48 10.05 56 10.05" stroke="rgba(187, 187, 187, 0.5)" stroke-width="2"></path><path d="M140 9.85C138.8 9.85 137.76 11.79 137.76 14C137.76 18.17 138.78 22.62 140 22.62C141.24 22.62 142.67 18.13 142.67 14C142.67 11.74 141.26 9.85 140 9.85" stroke="rgba(187, 187, 187, 0.5)" stroke-width="2"></path><path d="M350 1C346.68 1 346.04 7.82 346.04 14C346.04 17.12 347.33 19.6 350 19.6C354.82 19.6 361.03 17.91 361.03 14C361.03 8.61 354.17 1 350 1" stroke="rgba(187, 187, 187, 0.5)" stroke-width="2"></path><path d="M434 4.67C433.59 4.67 432.96 9.65 432.96 14C432.96 14.52 433.5 14.41 434 14.41C434.32 14.41 434.6 14.35 434.6 14C434.6 9.48 434.41 4.67 434 4.67" stroke="rgba(187, 187, 187, 0.5)" stroke-width="2"></path><path d="M504 6.53C501.24 6.53 500.8 10.66 500.8 14C500.8 15.69 502.09 16.6 504 16.6C509.59 16.6 515.79 16.34 515.79 14C515.79 11.3 508.74 6.53 504 6.53" stroke="rgba(187, 187, 187, 0.5)" stroke-width="2"></path><path d="M574 11.61C570.67 11.61 567.23 12.66 567.23 14C567.23 15.38 570.7 17.04 574 17.04C576.65 17.04 579.12 15.39 579.12 14C579.12 12.68 576.62 11.61 574 11.61" stroke="rgba(187, 187, 187, 0.5)" stroke-width="2"></path><path d="M616 10.18C613.49 10.18 610.4 12.13 610.4 14C610.4 15.84 613.47 17.6 616 17.6C617.79 17.6 619.04 15.82 619.04 14C619.04 12.11 617.81 10.18 616 10.18" stroke="rgba(187, 187, 187, 0.5)" stroke-width="2"></path><path d="M924 8.21C921.32 8.21 918.49 10.82 918.49 14C918.49 18.14 921.35 22.84 924 22.84C926.58 22.84 928.94 18.18 928.94 14C928.94 10.86 926.55 8.21 924 8.21" stroke="rgba(187, 187, 187, 0.5)" stroke-width="2"></path><path d="M966 8.79C963.4 8.79 960.54 11.69 960.54 14C960.54 15.96 963.35 17.34 966 17.34C968.32 17.34 970.48 15.92 970.48 14C970.48 11.64 968.37 8.79 966 8.79" stroke="rgba(187, 187, 187, 0.5)" stroke-width="2"></path><path d="M1022 9.58C1021 9.58 1020.29 11.83 1020.29 14C1020.29 15.79 1021.02 17.5 1022 17.5C1023.07 17.5 1024.4 15.81 1024.4 14C1024.4 11.85 1023.06 9.58 1022 9.58" stroke="rgba(187, 187, 187, 0.5)" stroke-width="2"></path><path d="M1162 1.4C1159.45 1.4 1157.58 8.27 1157.58 14C1157.58 16.54 1159.64 17.94 1162 17.94C1164.85 17.94 1168 16.81 1168 14C1168 8.54 1164.66 1.4 1162 1.4" stroke="rgba(187, 187, 187, 0.5)" stroke-width="2"></path><path d="M1190 11.57C1187.96 11.85 1186.5 12.68 1186.5 14C1186.5 15.45 1188.34 15.46 1190 17.11C1195.39 22.46 1195.38 22.48 1200.59 28C1202.38 29.89 1202.27 31.94 1204 31.94C1205.77 31.94 1205.74 29.91 1207.6 28C1212.74 22.74 1212.92 22.91 1218 17.6C1219.62 15.91 1221 15.59 1221 14C1221 12.76 1219.76 12.18 1218 11.93C1211.26 10.97 1211 11.68 1204 11.59C1197 11.5 1196.71 10.65 1190 11.57" stroke="rgba(187, 187, 187, 0.5)" stroke-width="2"></path><path d="M84 25.86C80.31 26.85 76.75 25.35 76.67 28C76.5 33.42 80 35.05 83.5 42C83.67 42.33 83.69 42.56 84 42.56C84.6 42.56 84.68 42.31 85.33 42C91.68 39 91.35 37.87 98 35.95C104.68 34.02 104.98 34.86 112 34.31C118.98 33.76 119.36 35.42 126 33.76C132.02 32.26 137.31 30.66 137.31 28C137.31 25.44 131.9 24.4 126 23.33C119.25 22.1 118.99 23.67 112 23.4C104.99 23.13 104.9 21.65 98 22.26C90.9 22.88 90.98 23.98 84 25.86" stroke="rgba(187, 187, 187, 0.5)" stroke-width="2"></path><path d="M322 25.7C320.55 25.7 319.2 26.86 319.2 28C319.2 29.12 320.55 30.22 322 30.22C323.65 30.22 325.41 29.12 325.41 28C325.41 26.86 323.65 25.7 322 25.7" stroke="rgba(187, 187, 187, 0.5)" stroke-width="2"></path><path d="M392 26.44C391.15 26.47 391.1 27.2 391.1 28C391.1 28.93 391.36 29.07 392 29.89C396.79 36.07 397.18 35.8 401.96 42C404.18 44.89 403.93 48.07 406 48.07C408.12 48.07 409.72 45.48 410.33 42C411.47 35.45 411.23 33.81 409.5 28C409.06 26.53 407.76 27.61 406 27.45C399.01 26.83 398.6 26.2 392 26.44" stroke="rgba(187, 187, 187, 0.5)" stroke-width="2"></path><path d="M476 25.7C474.32 25.7 473.16 26.78 473.16 28C473.16 29.33 474.23 30.8 476 30.8C480.44 30.8 485.58 29.28 485.58 28C485.58 26.73 480.53 25.7 476 25.7" stroke="rgba(187, 187, 187, 0.5)" stroke-width="2"></path><path d="M700 23.8C695.28 23.8 689.82 25.58 689.82 28C689.82 30.57 695.47 33.79 700 33.79C702.86 33.79 704.6 30.71 704.6 28C704.6 25.72 702.67 23.8 700 23.8" stroke="rgba(187, 187, 187, 0.5)" stroke-width="2"></path><path d="M728 26.12C726.98 26.12 725.83 26.75 725.83 28C725.83 31.19 727.04 35 728 35C728.94 35 729.64 31.3 729.64 28C729.64 26.86 728.89 26.12 728 26.12" stroke="rgba(187, 187, 187, 0.5)" stroke-width="2"></path><path d="M812 20.42C808.73 20.42 807.99 24.16 804.09 28C800.99 31.06 800.97 31.04 798 34.22C794.43 38.04 791 38.15 791 42C791 45.76 794.59 49.45 798 49.45C801.27 49.45 801.02 45.57 804.36 42C808.02 38.1 808.67 38.63 812 34.5C814.31 31.63 815.64 31.31 815.64 28C815.64 24.27 814.51 20.42 812 20.42" stroke="rgba(187, 187, 187, 0.5)" stroke-width="2"></path><path d="M896 22.95C893.22 22.95 891.66 25.4 891.66 28C891.66 30.83 893.11 33.81 896 33.81C901.44 33.81 908.32 30.75 908.32 28C908.32 25.32 901.55 22.95 896 22.95" stroke="rgba(187, 187, 187, 0.5)" stroke-width="2"></path><path d="M1008 27.68C1007.24 27.68 1006.44 27.85 1006.44 28C1006.44 28.14 1007.23 28.26 1008 28.26C1008.38 28.26 1008.74 28.14 1008.74 28C1008.74 27.85 1008.39 27.68 1008 27.68" stroke="rgba(187, 187, 187, 0.5)" stroke-width="2"></path><path d="M1344 22.4C1342.14 22.4 1341.75 25.29 1341.75 28C1341.75 29.97 1342.35 31.77 1344 31.77C1346.98 31.77 1351 30.2 1351 28C1351 25.52 1346.76 22.4 1344 22.4" stroke="rgba(187, 187, 187, 0.5)" stroke-width="2"></path><path d="M1582 27.1C1581.58 27.1 1581.53 27.56 1581.53 28C1581.53 28.41 1581.6 28.8 1582 28.8C1583.24 28.8 1584.8 28.42 1584.8 28C1584.8 27.57 1583.22 27.1 1582 27.1" stroke="rgba(187, 187, 187, 0.5)" stroke-width="2"></path><path d="M28 34C25.37 34.53 27.03 38.13 27.03 42C27.03 42.78 27.23 43.14 28 43.3C34.71 44.71 35.28 45.6 42 45.15C44.97 44.95 47.38 43.55 47.38 42C47.38 40.47 44.84 40.16 42 38.99C35.15 36.16 32.85 33.02 28 34" stroke="rgba(187, 187, 187, 0.5)" stroke-width="2"></path><path d="M574 40.81C573.5 40.81 572.97 41.35 572.97 42C572.97 42.89 573.51 43.89 574 43.89C574.48 43.89 574.91 42.9 574.91 42C574.91 41.36 574.47 40.81 574 40.81" stroke="rgba(187, 187, 187, 0.5)" stroke-width="2"></path><path d="M602 38.18C600.03 38.18 598.5 40.11 598.5 42C598.5 43.83 600.04 45.61 602 45.61C604.59 45.61 607.6 43.84 607.6 42C607.6 40.13 604.58 38.18 602 38.18" stroke="rgba(187, 187, 187, 0.5)" stroke-width="2"></path><path d="M714 38.39C711.41 38.39 709.33 39.55 709.33 42C709.33 47.31 710.82 53.9 714 53.9C717.73 53.9 723.15 46.69 723.15 42C723.15 38.93 718.32 38.39 714 38.39" stroke="rgba(187, 187, 187, 0.5)" stroke-width="2"></path><path d="M854 37.67C851.78 38.54 851.28 40.07 851.28 42C851.28 43.3 852.55 43.19 854 44.12C860.91 48.53 862.02 53.26 868 52.67C872.75 52.2 875.47 46.89 875.47 42C875.47 38.26 872.43 36.3 868 35.41C861.69 34.14 860.14 35.25 854 37.67" stroke="rgba(187, 187, 187, 0.5)" stroke-width="2"></path><path d="M1022 34.63C1019.69 34.63 1018.16 38.22 1018.16 42C1018.16 46.73 1019.63 51.66 1022 51.66C1024.6 51.66 1028.09 46.63 1028.09 42C1028.09 38.12 1024.66 34.63 1022 34.63" stroke="rgba(187, 187, 187, 0.5)" stroke-width="2"></path><path d="M1162 39.3C1159.81 39.3 1157.19 40.76 1157.19 42C1157.19 43.19 1159.76 44.17 1162 44.17C1163.4 44.17 1164.48 43.15 1164.48 42C1164.48 40.72 1163.46 39.3 1162 39.3" stroke="rgba(187, 187, 187, 0.5)" stroke-width="2"></path><path d="M1302 31.5C1299.75 31.5 1296.75 37.77 1296.75 42C1296.75 44.03 1299.45 44.03 1302 44.03C1303.83 44.03 1305.5 43.68 1305.5 42C1305.5 37.41 1304.12 31.5 1302 31.5" stroke="rgba(187, 187, 187, 0.5)" stroke-width="2"></path><path d="M1358 38.89C1357.27 38.89 1356.67 40.57 1356.67 42C1356.67 42.79 1357.3 43.33 1358 43.33C1358.79 43.33 1359.65 42.83 1359.65 42C1359.65 40.61 1358.76 38.89 1358 38.89" stroke="rgba(187, 187, 187, 0.5)" stroke-width="2"></path><path d="M1428 35.19C1426.41 35.19 1425.14 38.72 1425.14 42C1425.14 44.34 1426.44 46.42 1428 46.42C1429.7 46.42 1431.65 44.39 1431.65 42C1431.65 38.78 1429.66 35.19 1428 35.19" stroke="rgba(187, 187, 187, 0.5)" stroke-width="2"></path><path d="M1498 40.6C1497.09 40.6 1496 41.08 1496 42C1496 43.53 1497.17 45.5 1498 45.5C1498.76 45.5 1499.19 43.64 1499.19 42C1499.19 41.19 1498.68 40.6 1498 40.6" stroke="rgba(187, 187, 187, 0.5)" stroke-width="2"></path><path d="M1610 38.03C1607.75 38.03 1605.42 40.06 1605.42 42C1605.42 43.88 1607.74 45.66 1610 45.66C1612.16 45.66 1614.25 43.87 1614.25 42C1614.25 40.06 1612.16 38.03 1610 38.03" stroke="rgba(187, 187, 187, 0.5)" stroke-width="2"></path><path d="M0 1.81C4.11 1.23 6.63 7.68 14 12.04C16.92 13.77 20.04 11.42 20.59 14C21.73 19.4 17.28 21.02 17.38 28C17.48 35.02 22.04 35.92 21 42C20.35 45.82 18.11 46.25 14 47.8C7.61 50.21 4.49 51.79 0 49.93C-2.51 48.89 0 45.97 0 42C0 36.13 -2.32 34.38 0 30.25C1.62 27.38 7.87 29.13 7.87 28C7.87 26.88 1.62 28.62 0 25.75C-2.32 21.62 0 19.88 0 14C0 7.91 -2.89 2.21 0 1.81" stroke="rgba(187, 187, 187, 0.5)" stroke-width="2"></path><path d="M28 10.5C25.09 5.54 23.03 3.68 23.03 0C23.03 -1.57 25.52 0 28 0C35 0 35 0 42 0C49 0 49 0 56 0C63 0 63 0 70 0C77 0 77 0 84 0C91 0 91 0 98 0C102.57 0 103.59 -1.89 107.14 0C110.59 1.84 108.34 5.83 112 7.45C117.77 10 119.86 6.19 126 8.33C129.24 9.46 130.76 11.41 130.76 14C130.76 16.13 128.84 17.11 126 17.78C119.46 19.31 118.97 18.71 112 18.4C104.97 18.08 104.86 15.88 98 16.52C90.86 17.18 91.16 20.13 84 21C77.16 21.83 75.83 22.28 70 19.92C67.19 18.78 68.73 16.71 66.72 14C61.73 7.29 60.85 1.08 56 1.08C51.67 1.08 50 7.05 48.36 14C46.82 20.51 51.46 21.93 49.64 28C48.28 32.54 46.02 35.23 42 35.23C37.4 35.23 34.88 32.89 32.4 28C29.5 22.28 32.87 20.53 31.23 14C30.67 11.78 29.19 12.54 28 10.5" stroke="rgba(187, 187, 187, 0.5)" stroke-width="2"></path><path d="M151 14C150.14 6.65 140.76 4.04 141.62 0C142.26 -2.96 147.81 0 154 0C157.39 0 158.08 -1.55 160.78 0C165.08 2.48 164.29 4.13 168 8.07C170.87 11.13 171.13 10.88 173.93 14C178.13 18.68 176.88 20.49 182 23.66C187.92 27.33 189.48 28.87 196 27.68C203.48 26.31 203.61 23.71 210 18.54C212.06 16.87 212.23 16.56 212.9 14C214.66 7.29 211.49 4.25 214.86 0C217.04 -2.75 219.43 0 224 0C231 0 231 0 238 0C241.17 0 244.33 -1.43 244.33 0C244.33 2.16 240.82 3.35 238 7.19C235.68 10.35 234.06 10.42 234.06 14C234.06 19.3 234.6 24.96 238 24.96C242.87 24.96 244.28 19.45 250.6 14C251.28 13.41 251.35 12.88 252 12.88C252.55 12.88 252.36 13.62 253 14C259.36 17.75 259.06 19.09 266 21.14C272.56 23.07 273.99 19.73 280 21.96C283.22 23.16 282.08 25.1 284.46 28C289.08 33.61 289.08 38.97 294 38.97C299.16 38.97 299.93 33.93 304.61 28C306.93 25.06 306.15 21.23 308 21.23C309.95 21.23 309.48 25.17 312.2 28C316.48 32.44 316.92 35.78 322 35.78C327.79 35.78 333.95 31.93 333.95 28C333.95 24.03 327.96 24.01 322 19.97C317.65 17.01 314.18 18.16 313.33 14C312.15 8.18 314.54 5.49 317.94 0C318.88 -1.51 319.97 0 322 0C325.4 0 325.69 -0.99 328.81 0C332.69 1.23 333.15 1.45 336 4.43C339.86 8.45 339.02 9.28 342.24 14C346.02 19.55 344.7 22.79 350 24.98C355.58 27.29 357.38 25.18 364 23C371.38 20.58 370.93 19.23 378 15.78C380.15 14.73 380.76 15.62 382.45 14C387.76 8.9 387.36 8.26 392 2.33C392.84 1.26 392.16 0.21 393.4 0C399.16 -0.96 399.7 0 406 0C411.4 0 413.8 -3 416.8 0C420.8 4 422.51 8.7 420 14C417.11 20.12 413.44 21.6 406 22.84C399.44 23.93 397.58 17.18 392 18.67C387.89 19.76 386.62 23.23 386.62 28C386.62 33.57 389.03 33.85 392 39.35C392.81 40.85 394.18 40.41 394.18 42C394.18 46.64 393.31 46.97 392 51.8C391.41 53.97 392.25 55.44 390.38 56C385.25 57.54 384.19 56 378 56C371 56 371 56 364 56C359.69 56 359.43 56.94 355.38 56C352.43 55.31 352.57 54.55 350 52.74C342.88 47.72 342.18 41.51 336 42.33C329.87 43.14 331.23 50.28 325.37 56C324.23 57.11 323.68 56 322 56C315 56 315 56 308 56C301 56 301 56 294 56C289.34 56 287.86 58.31 284.67 56C280.86 53.24 282.93 50.5 280 45.86C278.52 43.5 278.15 43.63 275.85 42C271.15 38.68 270.64 35.95 266 35.95C262.39 35.95 260.54 38.08 259.35 42C257.49 48.11 262.24 51.52 259.89 56C258.57 58.52 255.94 56 252 56C249.02 56 246.74 58.08 246.05 56C244.41 51.08 249.24 48.28 247.33 42C245.21 35.03 243.77 30.69 238 29.49C232.1 28.26 230.69 32.86 224 37.13C220.89 39.12 220.32 38.92 218.4 42C214.44 48.35 215.91 49.9 212.25 56C211.71 56.9 211.13 56 210 56C206.3 56 206.07 56.9 202.59 56C199.07 55.09 199.21 52.39 196 52.39C193.25 52.39 193.65 55.23 190.67 56C186.65 57.04 186.33 56 182 56C175 56 175 56 168 56C164.77 56 163.6 57.99 161.54 56C156.6 51.23 159.49 44.63 154 42.48C148.72 40.41 147.17 46.84 140 47.57C133.17 48.26 133.02 46.31 126 45.33C119.02 44.36 118.9 44.91 112 43.68C109.57 43.25 107.33 42.64 107.33 42C107.33 41.39 109.64 41.35 112 41.18C118.97 40.67 119.42 42.49 126 40.63C133.42 38.54 133.51 37.62 140 33.28C142.96 31.3 143.15 31.09 144.91 28C148.65 21.45 151.78 20.65 151 14" stroke="rgba(187, 187, 187, 0.5)" stroke-width="2"></path><path d="M196 7.24C191.91 7.24 188.05 2.08 188.05 0C188.05 -1.54 192.02 0 196 0C200.53 0 205.07 -1.59 205.07 0C205.07 2.03 200.42 7.24 196 7.24" stroke="rgba(187, 187, 187, 0.5)" stroke-width="2"></path><path d="M266 8.31C260.83 7.23 257.28 2.41 257.28 0C257.28 -1.74 261.64 0 266 0C273 0 273 0 280 0C282.63 0 285.25 -1.01 285.25 0C285.25 1.37 283.17 3.4 280 4.77C273.55 7.56 272.19 9.61 266 8.31" stroke="rgba(187, 187, 187, 0.5)" stroke-width="2"></path><path d="M364 5.87C361.41 5.87 358.94 1.78 358.94 0C358.94 -1.16 361.47 0 364 0C366.76 0 369.52 -1.19 369.52 0C369.52 1.74 366.7 5.87 364 5.87" stroke="rgba(187, 187, 187, 0.5)" stroke-width="2"></path><path d="M442.04 14C445.42 11.03 445.15 10.69 448 7.17C450.81 3.69 449.79 1.82 453.35 0C456.79 -1.76 457.67 0 462 0C469 0 469 0 476 0C479.5 0 479.83 -1.08 483 0C486.83 1.31 487.2 1.71 490 4.77C493.6 8.71 492.25 9.96 495.8 14C499.25 17.91 499.94 17.29 504 20.67C508.35 24.29 508.57 24.07 512.63 28C515.57 30.85 514.8 31.72 518 34.22C523.76 38.72 524.51 37.85 530.56 42C531.51 42.65 530.95 43.81 532 43.81C536.33 43.81 540.1 45.15 541.33 42C543.19 37.24 538.48 35.05 538.19 28C537.9 21.05 538.09 20.64 540.17 14C541.99 8.17 542.94 8.44 546 3.06C546.92 1.44 546.46 0.37 548.13 0C553.46 -1.16 554.07 0 560 0C567 0 567 0 574 0C581 0 581 0 588 0C595 0 595 0 602 0C609 0 609 0 616 0C618.44 0 620.88 -1.01 620.88 0C620.88 1.43 618.73 2.79 616 4.88C609.6 9.79 602.62 9.53 602.62 14C602.62 18.39 609.96 22.6 616 22.6C620.27 22.6 619.46 18.15 623.25 14C626.46 10.48 626.2 7.25 630 7.25C635.29 7.25 636.62 9.8 641.43 14C643.62 15.92 641.56 18.13 644 19.48C649.84 22.7 650.88 22.21 658 23.13C664.88 24.03 665.49 21.59 672 23.12C675.88 24.03 677.11 24.5 678.77 28C681.59 33.94 679.76 35.02 680.96 42C682.17 49.02 686.06 52.14 683.59 56C681.58 59.14 677.8 56 672 56C665 56 665 56 658 56C656.22 56 654.97 57.41 654.45 56C652.39 50.41 655.56 48.11 652.83 42C650.33 36.39 648.19 32.56 644 32.56C640.15 32.56 639.02 36.67 636.75 42C634.02 48.39 636.64 50.53 634 56C633.26 57.53 632 56 630 56C623 56 623 56 616 56C609 56 609 56 602 56C595 56 595 56 588 56C581 56 581 56 574 56C567 56 567 56 560 56C554.98 56 553.04 58.67 549.96 56C546.04 52.61 548.11 43.87 546 43.87C543.86 43.87 545.5 52.49 541.45 56C538.5 58.56 536.72 56 532 56C525 56 525 56 518 56C516 56 515.85 56.65 514 56C508.85 54.19 508.5 54.27 504 51.09C498.61 47.27 496.63 47.63 494.23 42C491.71 36.09 495.57 34.54 494.16 28C493.46 24.77 493 23.57 490 22.46C483.92 20.21 482.33 19.7 476 21.27C471.18 22.47 467.69 24.43 467.69 28C467.69 31.89 471.51 32.5 476 36.18C480.06 39.5 484.24 37.95 484.79 42C485.59 47.86 482.44 50.06 478.71 56C478.05 57.06 477.36 56 476 56C474.58 56 474.32 56.74 473.15 56C467.32 52.3 468.01 50.83 462 47.11C456.71 43.83 454.94 45.8 450.55 42C447.94 39.74 449.17 35 448 35C446.85 35 446.33 38.4 445.9 42C445.07 48.9 448.75 52.15 445.48 56C442.8 59.15 439.74 56 434 56C427 56 427 56 420 56C414.81 56 409.87 58.69 409.61 56C409.2 51.69 414.29 49.08 418.67 42C419.48 40.68 419.46 40.65 420 39.2C422.06 33.65 420.55 32.66 423.86 28C427.55 22.8 428.76 23.52 434 19.48C437.85 16.52 438.42 17.19 442.04 14" stroke="rgba(187, 187, 187, 0.5)" stroke-width="2"></path><path d="M462 13.22C461.43 13.22 460.73 13.57 460.73 14C460.73 14.46 461.45 15 462 15C462.41 15 462.65 14.48 462.65 14C462.65 13.59 462.39 13.22 462 13.22" stroke="rgba(187, 187, 187, 0.5)" stroke-width="2"></path><path d="M560 11.38C557.89 12.14 556.29 12.44 556.29 14C556.29 16 557.46 17.33 560 18.5C566.31 21.39 567.41 23.19 574 22.12C581.24 20.94 587.66 17.72 587.66 14C587.66 10.48 581.05 8.31 574 7.64C567.22 7 566.74 8.96 560 11.38" stroke="rgba(187, 187, 187, 0.5)" stroke-width="2"></path><path d="M644 2.55C643.7 2.55 643.38 1.03 643.38 0C643.38 -0.24 643.69 0 644 0C644.28 0 644.56 -0.23 644.56 0C644.56 1.05 644.29 2.55 644 2.55" stroke="rgba(187, 187, 187, 0.5)" stroke-width="2"></path><path d="M812 12.09C809.25 12.09 806.78 4.33 806.78 0C806.78 -1.72 809.39 0 812 0C814.95 0 817.91 -1.84 817.91 0C817.91 4.2 814.81 12.09 812 12.09" stroke="rgba(187, 187, 187, 0.5)" stroke-width="2"></path><path d="M874.28 14C876.87 8.1 876.86 4.83 882 3.33C887.72 1.67 889.86 8.65 896 7.68C900.36 6.99 898.82 2.29 903 0C905.82 -1.55 906.5 0 910 0C917 0 917 0 924 0C931 0 931 0 938 0C941.95 0 943.51 -2.39 945.9 0C950.51 4.61 948.95 7 952 14C952 14 952 14 952 14C959 18.28 959.2 22.57 966 22.57C971.94 22.57 972.67 19.01 977.48 14C979.67 11.72 977.45 9.55 980 8C985.71 4.53 987.11 3.59 994 3.96C1001.11 4.34 1001.42 6.05 1008 9.5C1010.99 11.07 1013.14 11.59 1013.14 14C1013.14 16.71 1011.31 18.06 1008 19.73C1001.74 22.89 1000.64 20.94 994 23.67C990.59 25.07 990.46 25.33 987.9 28C983.46 32.63 983.75 33 980 38.27C978.77 40 977.93 40.28 977.93 42C977.93 43.18 978.65 43.57 980 44.07C986.69 46.53 987.65 48.57 994 47.92C997.73 47.54 997.05 44.93 1000.16 42C1004.05 38.34 1004.42 34.74 1008 34.74C1011.03 34.74 1013.21 37.96 1013.37 42C1013.62 48.59 1011.36 49.37 1008.82 56C1008.68 56.37 1008.41 56 1008 56C1001 56 1001 56 994 56C987 56 987 56 980 56C973 56 973 56 966 56C959 56 959 56 952 56C945 56 945 56 938 56C935.39 56 934.91 57.23 932.78 56C927.91 53.2 929.23 50 924 47.95C917.84 45.53 916.92 48.07 910 47.06C902.92 46.03 902.92 45.72 896 43.87C893.45 43.19 891.06 42.87 891.06 42C891.06 41.15 893.53 41.21 896 40.42C903 38.16 902.98 38.09 910 35.9C916.98 33.72 917.15 34.16 924 31.67C928 30.21 929.81 31.32 931.7 28C934.85 22.48 935.93 20.17 934.09 14C932.08 7.25 929.21 2.17 924 2.17C918.54 2.17 917.95 7.77 912.75 14C910.95 16.16 912.4 18.48 910 18.94C904.02 20.09 901.79 14.95 896 17.21C890.16 19.48 890.72 22.18 886.73 28C883.72 32.38 885.31 37.6 882 37.6C877.52 37.6 873.1 33.93 871.16 28C869.24 22.13 871.45 20.43 874.28 14" stroke="rgba(187, 187, 187, 0.5)" stroke-width="2"></path><path d="M966 0.65C965.55 0.65 965.22 0.18 965.22 0C965.22 -0.14 965.61 0 966 0C967 0 968 -0.16 968 0C968 0.17 966.94 0.65 966 0.65" stroke="rgba(187, 187, 187, 0.5)" stroke-width="2"></path><path d="M1034.4 14C1033.69 6.75 1026.29 4.44 1026.8 0C1027.09 -2.56 1031.4 0 1036 0C1043 0 1043 0 1050 0C1054.49 0 1057.79 -2.7 1058.98 0C1060.88 4.3 1058.83 7.58 1056.18 14C1054.34 18.47 1053.64 18.49 1050 21.78C1045.89 25.49 1043.64 23.62 1040.67 28C1036.79 33.73 1038.56 35.04 1036.31 42C1036.23 42.25 1036.15 42.42 1036 42.42C1035.85 42.42 1035.81 42.24 1035.7 42C1032.58 35.03 1029.87 35.11 1029.54 28C1029.22 21.11 1035.06 20.75 1034.4 14" stroke="rgba(187, 187, 187, 0.5)" stroke-width="2"></path><path d="M1078 5.19C1075.95 5.19 1073.17 1.54 1073.17 0C1073.17 -1.05 1075.59 0 1078 0C1079.32 0 1080.64 -0.81 1080.64 0C1080.64 1.79 1079.68 5.19 1078 5.19" stroke="rgba(187, 187, 187, 0.5)" stroke-width="2"></path><path d="M1099.09 14C1101.29 7.69 1097.51 4.88 1099.92 0C1100.96 -2.12 1102.96 0 1106 0C1109.45 0 1110.7 -2.08 1112.9 0C1117.7 4.53 1115.38 13.22 1120 13.22C1125.93 13.22 1127 6.61 1134 0C1134 0 1134 0 1134 0C1141 0 1141 0 1148 0C1152.13 0 1155.63 -2.51 1156.25 0C1157.35 4.49 1153.6 6.92 1151.44 14C1149.47 20.46 1152.22 24.73 1148 27.07C1143.5 29.56 1140.59 26.38 1134 23.67C1126.59 20.63 1124.86 14.36 1120 15.56C1116.11 16.52 1117.69 21.67 1116.5 28C1115.2 34.89 1113.93 35.5 1115.03 42C1115.68 45.85 1117.33 45.5 1120 48.7C1123.18 52.5 1126.72 53.82 1126.72 56C1126.72 57.47 1123.36 56 1120 56C1113 56 1113 56 1106 56C1099 56 1099 56 1092 56C1085 56 1085 56 1078 56C1077.71 56 1077.64 56.19 1077.42 56C1070.64 50.22 1070.68 50.07 1064 44.07C1062.89 43.07 1061.85 43.32 1061.85 42C1061.85 38.55 1062.71 38.19 1064 34.53C1065.18 31.19 1064.46 30.54 1066.8 28C1071.46 22.92 1071.75 20.59 1078 19.29C1084.35 17.97 1086.08 24.24 1092 22.75C1096.62 21.59 1097.33 19.07 1099.09 14" stroke="rgba(187, 187, 187, 0.5)" stroke-width="2"></path><path d="M1190 3.96C1185.34 3.96 1180.9 1.03 1180.9 0C1180.9 -0.95 1185.45 0 1190 0C1196.5 0 1203 -0.97 1203 0C1203 1.01 1196.39 3.96 1190 3.96" stroke="rgba(187, 187, 187, 0.5)" stroke-width="2"></path><path d="M1218 6.2C1211.55 2.57 1204.5 1.62 1204.5 0C1204.5 -1.48 1211.25 0 1218 0C1225 0 1225 0 1232 0C1232 0 1232 0 1232 0C1233.05 7 1234.11 7.17 1234.11 14C1234.11 16.25 1233.16 18.15 1232 18.15C1230.77 18.15 1231.18 15.58 1229.33 14C1224.18 9.6 1223.97 9.57 1218 6.2" stroke="rgba(187, 187, 187, 0.5)" stroke-width="2"></path><path d="M1274 8.08C1269.3 3.96 1264.45 2.29 1264.45 0C1264.45 -1.75 1269.22 0 1274 0C1277.7 0 1278.37 -1.54 1281.41 0C1285.37 2.01 1284.68 3.56 1288 7.09C1291.27 10.56 1293.07 9.77 1294.58 14C1296.8 20.22 1297.19 21.65 1295.45 28C1293.9 33.65 1292.17 33.45 1288 38C1285.76 40.45 1285.13 39.79 1282.62 42C1278.13 45.94 1278.88 50.07 1274 50.3C1267.57 50.6 1266.6 42.22 1260 43.06C1252.6 44 1253.05 48.52 1246 53.85C1244.49 54.99 1244.69 55.72 1242.89 56C1237.69 56.8 1237.45 56 1232 56C1228.74 56 1225.47 57.09 1225.47 56C1225.47 54.64 1229.12 53.96 1232 51.1C1236.18 46.96 1238.13 47.28 1239.58 42C1241.3 35.73 1236.37 33.71 1238.33 28C1239.58 24.34 1241.76 24.27 1246 23.26C1252.59 21.69 1253.39 21.49 1260 22.85C1264.88 23.86 1265.07 24.75 1268.97 28C1272.07 30.59 1271.49 34.53 1274 34.53C1276.51 34.53 1277.84 31.79 1279.03 28C1281.05 21.53 1281.97 20.15 1280.42 14C1279.46 10.19 1277.28 10.96 1274 8.08" stroke="rgba(187, 187, 187, 0.5)" stroke-width="2"></path><path d="M1316 1.33C1315.12 1.33 1314.53 0.38 1314.53 0C1314.53 -0.28 1315.26 0 1316 0C1318.15 0 1320.31 -0.32 1320.31 0C1320.31 0.34 1318.01 1.33 1316 1.33" stroke="rgba(187, 187, 187, 0.5)" stroke-width="2"></path><path d="M1372 7.95C1368.77 4.16 1365.97 2.48 1365.97 0C1365.97 -1.5 1368.99 0 1372 0C1379 0 1379 0 1386 0C1387 0 1387.55 -0.82 1388 0C1391.42 6.18 1389.98 7.58 1393.74 14C1395.98 17.84 1397.15 20.53 1400 20.53C1402.48 20.53 1403.54 17.69 1404.39 14C1405.91 7.43 1401.86 4.22 1404.75 0C1406.66 -2.78 1409.38 0 1414 0C1421 0 1421 0 1428 0C1435 0 1435 0 1442 0C1449 0 1449 0 1456 0C1457.34 0 1458.68 -0.82 1458.68 0C1458.68 1.8 1458.43 4.93 1456 5.25C1450.09 6.03 1447.37 -0.03 1442 2.21C1436.87 4.35 1438.43 8.06 1435 14C1431.43 20.18 1431.71 20.38 1428 26.44C1427.43 27.38 1426.88 27 1426.44 28C1423.46 34.78 1420.74 35.33 1421.16 42C1421.52 47.61 1424.27 52.56 1428 52.56C1432.05 52.56 1432.98 47.68 1436.72 42C1439.98 37.05 1439.36 31.29 1442 31.29C1444.64 31.29 1446.49 36.34 1447.28 42C1448.21 48.69 1447.55 50.37 1445.43 56C1444.91 57.37 1443.72 56 1442 56C1435 56 1435 56 1428 56C1423.55 56 1423.42 56.65 1419.09 56C1416.42 55.6 1416.69 54.37 1414 53.89C1407.14 52.66 1406.61 51.83 1400 52.58C1397.28 52.89 1398.01 55.35 1395.33 56C1391.01 57.06 1390.66 56 1386 56C1381.84 56 1380.55 58.16 1377.68 56C1373.55 52.91 1374.89 50.72 1372 45.5C1371.02 43.72 1369.94 43.88 1369.94 42C1369.94 38.63 1369.35 36.96 1372 35C1377.38 31.03 1379.32 33.07 1386 30.15C1387.32 29.57 1388 29.04 1388 28C1388 27.03 1386.8 27.24 1386 26.13C1381.75 20.24 1382.34 19.75 1377.91 14C1375.34 10.66 1374.74 11.16 1372 7.95" stroke="rgba(187, 187, 187, 0.5)" stroke-width="2"></path><path d="M1470.37 14C1473.84 7.04 1472.45 4.87 1477.19 0C1479.26 -2.13 1480.6 0 1484 0C1487.36 0 1487.83 -1.28 1490.72 0C1494.83 1.82 1494.53 2.92 1498 6.2C1501.94 9.92 1502.1 9.83 1505.54 14C1509.1 18.32 1507.84 19.71 1512 23.19C1516.2 26.71 1517.23 25.41 1522.27 28C1524.23 29.01 1524.33 28.93 1526 30.38C1532.4 35.93 1532.43 36 1538.41 42C1539.43 43.02 1539.39 43.11 1540 44.41C1542.69 50.11 1545.01 51.85 1545.01 56C1545.01 57.65 1542.51 56 1540 56C1537.05 56 1536.65 57.16 1534.11 56C1529.65 53.95 1530.67 51.35 1526 49.58C1519.62 47.17 1518.41 49.97 1512 47.64C1507.97 46.18 1508.25 45.14 1505.12 42C1501.25 38.12 1502.1 33.6 1498 33.6C1492.54 33.6 1488.98 36.27 1486 42C1483.15 47.47 1487.19 50 1486.33 56C1486.19 57 1485.16 56 1484 56C1477 56 1477 56 1470 56C1466.36 56 1463.98 58.39 1462.73 56C1460.32 51.39 1462.52 49 1462.69 42C1462.86 35 1461.66 34.64 1463.42 28C1465.31 20.86 1466.65 21.18 1470 14.44C1470.13 14.18 1470.24 14.26 1470.37 14" stroke="rgba(187, 187, 187, 0.5)" stroke-width="2"></path><path d="M1512 2.24C1510.82 2.24 1509.62 0.65 1509.62 0C1509.62 -0.47 1510.81 0 1512 0C1513.16 0 1514.33 -0.47 1514.33 0C1514.33 0.65 1513.17 2.24 1512 2.24" stroke="rgba(187, 187, 187, 0.5)" stroke-width="2"></path><path d="M1535.51 14C1535.51 11.79 1537.3 11.15 1540 10.22C1546.55 7.96 1547.6 10.3 1554 7.61C1559.75 5.19 1558.86 2.95 1564.29 0C1565.86 -0.86 1566.14 0 1568 0C1573.72 0 1574.67 -1.59 1579.45 0C1581.67 0.74 1581.18 4.67 1582 4.67C1582.73 4.67 1580.74 0.6 1582.55 0C1587.74 -1.73 1589.28 0 1596 0C1601.82 0 1602.63 -1.43 1607.63 0C1609.63 0.57 1608.65 2.11 1610 4C1613.64 9.11 1615.49 8.34 1617.61 14C1619.99 20.34 1621.23 22.67 1619 28C1617.43 31.77 1614.4 32.2 1610 32.2C1606.3 32.2 1604.39 31.39 1602.8 28C1600.12 22.29 1603.79 19.98 1601.46 14C1600.39 11.25 1598.96 10.55 1596 10.55C1590.63 10.55 1590.25 11.95 1584.8 14C1583.25 14.58 1582.9 14.45 1582 15.81C1578.29 21.45 1575.59 21.99 1575.59 28C1575.59 33.48 1577.2 36.73 1582 38.8C1587.4 41.13 1590.1 35.68 1596 36.81C1598.44 37.28 1598.69 39.48 1598.69 42C1598.69 44.08 1598.14 45.58 1596 46C1589.79 47.22 1588.38 43.35 1582 45.29C1574.38 47.6 1573.27 55.41 1568 54.5C1563.77 53.77 1564.73 48.46 1563 42C1561.18 35.21 1563.44 34.33 1560.89 28C1558.94 23.16 1558.55 21.22 1554 19.65C1548.1 17.62 1545.85 22.59 1540 20.8C1536.61 19.76 1535.51 17.08 1535.51 14" stroke="rgba(187, 187, 187, 0.5)" stroke-width="2"></path><path d="M1624 1.75C1623 0.27 1620.77 0.47 1620.77 0C1620.77 -0.41 1622.39 0 1624 0C1631 0 1631 0 1638 0C1645 0 1645 0 1652 0C1652.45 0 1652.7 -0.39 1652.9 0C1656.24 6.61 1659.34 7.49 1659.08 14C1658.89 18.62 1656.6 20.7 1652 22.26C1646.06 24.27 1644.21 23.5 1638 21.14C1633.34 19.37 1633.3 18.2 1630.26 14C1626.3 8.51 1627.74 7.27 1624 1.75" stroke="rgba(187, 187, 187, 0.5)" stroke-width="2"></path><path d="M1679.4 14C1679.69 13.72 1679.76 13.79 1680 13.46C1684.79 6.79 1683.97 5.27 1689.46 0C1690.97 -1.46 1691.73 0 1694 0C1701 0 1703.19 -2.19 1708 0C1710.19 1 1709.69 4.03 1708 6.39C1704.69 11.03 1701.87 9.31 1698 14C1694.87 17.78 1696.17 18.75 1694 23.33C1692.85 25.75 1691.36 25.7 1691.36 28C1691.36 30.1 1692.89 29.94 1694 32.12C1696.45 36.94 1698.48 37 1698.48 42C1698.48 47.73 1696.81 48.19 1694 53.59C1693.17 55.19 1692.94 55.7 1691.2 56C1685.94 56.91 1685.6 56 1680 56C1673 56 1673 56 1666 56C1659.41 56 1655.01 59.33 1652.82 56C1650.4 52.33 1654.07 48.71 1656.78 42C1659.72 34.71 1660.1 34.7 1664.11 28C1664.71 27 1665.13 27.39 1666 26.6C1672.78 20.39 1672.69 20.29 1679.4 14" stroke="rgba(187, 187, 187, 0.5)" stroke-width="2"></path><path d="M770 23.33C765.17 23.33 760.24 24.87 760.24 28C760.24 31.94 765.26 37.47 770 37.47C774.49 37.47 778.7 32 778.7 28C778.7 24.93 774.4 23.33 770 23.33" stroke="rgba(187, 187, 187, 0.5)" stroke-width="2"></path><path d="M851.76 28C851.76 26.74 852.58 25.05 854 25.05C856.25 25.05 859.09 26.87 859.09 28C859.09 29.01 856.45 29.33 854 29.33C852.79 29.33 851.76 28.88 851.76 28" stroke="rgba(187, 187, 187, 0.5)" stroke-width="2"></path><path d="M1148.64 28C1148.64 25.58 1155.73 26.55 1162 23.41C1169.41 19.7 1169.41 13.5 1176 14.3C1183.41 15.21 1183.04 20.53 1190 26.83C1190.61 27.38 1190.63 27.36 1191.14 28C1196.63 34.94 1196.25 35.48 1202 42C1202.68 42.77 1203.28 41.85 1204 42.58C1210.24 48.85 1215.93 51.97 1215.93 56C1215.93 58.68 1209.97 56 1204 56C1197.15 56 1196.77 56.5 1190.3 56C1189.77 55.96 1190.5 55.14 1190 54.92C1183.35 52.01 1182.22 49.39 1176 49.74C1172.6 49.93 1174.13 54.49 1170.75 56C1167.13 57.62 1166.38 56 1162 56C1155 56 1155 56 1148 56C1146.87 56 1145.74 56.85 1145.74 56C1145.74 52.96 1145.02 49.48 1148 48.22C1153.15 46.03 1155.75 50.86 1162 49.1C1166.81 47.75 1170.13 45.77 1170.13 42C1170.13 37.8 1166.9 36.35 1162 33.16C1156.16 29.35 1148.64 30.45 1148.64 28" stroke="rgba(187, 187, 187, 0.5)" stroke-width="2"></path><path d="M1217.6 28C1217.6 27.75 1217.77 27.6 1218 27.6C1218.32 27.6 1218.7 27.69 1218.7 28C1218.7 28.67 1218.28 29.56 1218 29.56C1217.73 29.56 1217.6 28.73 1217.6 28" stroke="rgba(187, 187, 187, 0.5)" stroke-width="2"></path><path d="M1322.36 28C1325.47 23.06 1326.17 19.04 1330 19.04C1333.85 19.04 1334.28 23.22 1337.72 28C1341.28 32.95 1340.35 33.69 1344 38.5C1345.66 40.69 1346.3 40.09 1348.33 42C1353.3 46.68 1352.85 47.21 1358 51.67C1360.94 54.21 1364.5 54.82 1364.5 56C1364.5 56.98 1361.25 56 1358 56C1351 56 1351 56 1344 56C1337 56 1337 56 1330 56C1323 56 1323 56 1316 56C1309 56 1309 56 1302 56C1298.84 56 1295.68 57.31 1295.68 56C1295.68 54.15 1298.4 52.26 1302 49.68C1308.17 45.26 1308.66 45.91 1315.22 42C1315.66 41.74 1315.77 41.79 1316 41.33C1319.34 34.79 1318.47 34.2 1322.36 28" stroke="rgba(187, 187, 187, 0.5)" stroke-width="2"></path><path d="M54.12 42C54.12 40.72 54.8 40.61 56 39.91C62.74 36 63.92 32.17 70 32.77C74.54 33.22 73.49 37.5 77.25 42C80.49 45.89 79.71 48.65 84 49.56C90.08 50.86 92.54 44.59 98 46.42C102.14 47.81 103.2 52.76 103.2 56C103.2 57.55 100.6 56 98 56C91 56 91 56 84 56C77 56 77 56 70 56C63.84 56 62.22 58.09 57.68 56C55.22 54.86 56.82 52.77 56 49.54C55.04 45.77 54.12 45.54 54.12 42" stroke="rgba(187, 187, 187, 0.5)" stroke-width="2"></path><path d="M182 35.33C179.15 35.33 176.62 38.51 176.62 42C176.62 46.09 179.12 50.48 182 50.48C185.07 50.48 188.51 46.05 188.51 42C188.51 38.47 185.1 35.33 182 35.33" stroke="rgba(187, 187, 187, 0.5)" stroke-width="2"></path><path d="M364 33C361.72 33 359.06 37.61 359.06 42C359.06 45.81 361.7 49.41 364 49.41C366.17 49.41 368 45.78 368 42C368 37.58 366.19 33 364 33" stroke="rgba(187, 187, 187, 0.5)" stroke-width="2"></path><path d="M574 34.88C571.02 34.88 567.82 38.1 567.82 42C567.82 47.34 571.05 53.35 574 53.35C576.87 53.35 579.45 47.39 579.45 42C579.45 38.16 576.83 34.88 574 34.88" stroke="rgba(187, 187, 187, 0.5)" stroke-width="2"></path><path d="M602 34.2C597.97 34.2 594.85 38.15 594.85 42C594.85 45.74 598 49.38 602 49.38C607.29 49.38 613.43 45.76 613.43 42C613.43 38.17 607.26 34.2 602 34.2" stroke="rgba(187, 187, 187, 0.5)" stroke-width="2"></path><path d="M695.33 42C695.33 40.74 697.82 39.83 700 39.83C701.39 39.83 702.47 40.81 702.47 42C702.47 43.43 701.48 45.07 700 45.07C697.91 45.07 695.33 43.36 695.33 42" stroke="rgba(187, 187, 187, 0.5)" stroke-width="2"></path><path d="M952 35.78C950.23 35.78 948.5 38.91 948.5 42C948.5 44.97 950.23 47.89 952 47.89C953.78 47.89 955.61 44.97 955.61 42C955.61 38.91 953.78 35.78 952 35.78" stroke="rgba(187, 187, 187, 0.5)" stroke-width="2"></path><path d="M1092 37.08C1088.55 37.08 1084.09 39.63 1084.09 42C1084.09 44.31 1088.5 46.44 1092 46.44C1094.17 46.44 1095.43 44.26 1095.43 42C1095.43 39.58 1094.22 37.08 1092 37.08" stroke="rgba(187, 187, 187, 0.5)" stroke-width="2"></path><path d="M1620.5 42C1620.5 38.13 1620.68 34.64 1624 33.83C1629.43 32.5 1631.35 35.03 1638 37.72C1641.43 39.11 1642.46 38.89 1644.16 42C1647.46 48.03 1649.82 51.86 1648 56C1646.74 58.86 1643 56 1638 56C1636.97 56 1636.77 56.56 1635.94 56C1629.77 51.84 1629.6 51.64 1624 46.56C1621.88 44.64 1620.5 44.5 1620.5 42" stroke="rgba(187, 187, 187, 0.5)" stroke-width="2"></path><path d="M24.44 56C24.44 54.59 25.46 52.44 28 51.44C34.24 48.98 35.4 47.94 42 49.08C48.56 50.22 54.32 54.15 54.32 56C54.32 57.61 48.16 56 42 56C35 56 35 56 28 56C26.22 56 24.44 56.87 24.44 56" stroke="rgba(187, 187, 187, 0.5)" stroke-width="2"></path><path d="M846.45 56C846.45 53.7 849.96 48.19 854 48.19C858.68 48.19 863.88 53.81 863.88 56C863.88 57.72 858.94 56 854 56C850.22 56 846.45 57.6 846.45 56" stroke="rgba(187, 187, 187, 0.5)" stroke-width="2"></path><path d="M881.33 56C881.33 55.61 881.73 54.83 882 54.83C882.24 54.83 882.35 55.55 882.35 56C882.35 56.13 882.17 56 882 56C881.66 56 881.33 56.19 881.33 56" stroke="rgba(187, 187, 187, 0.5)" stroke-width="2"></path><path d="M1603.29 56C1603.29 54.63 1606.69 51.05 1610 51.05C1613.14 51.05 1616.19 54.61 1616.19 56C1616.19 57.09 1613.1 56 1610 56C1606.64 56 1603.29 57.1 1603.29 56" stroke="rgba(187, 187, 187, 0.5)" stroke-width="2"></path><path d="M1695.94 56C1695.94 54.62 1703.7 50.71 1708 50.71C1709.73 50.71 1709.84 55.19 1708 56C1703.81 57.84 1695.94 57.26 1695.94 56" stroke="rgba(187, 187, 187, 0.5)" stroke-width="2"></path><path d="M0 8.3C2.49 8.3 7.9 11.18 7.9 14C7.9 16.78 2.51 19.5 0 19.5C-1.44 19.5 0 16.75 0 14C0 11.15 -1.46 8.3 0 8.3" stroke="rgba(187, 187, 187, 0.5)" stroke-width="2"></path><path d="M28 0.78C27.68 0.78 27.63 0.27 27.63 0C27.63 -0.12 27.81 0 28 0C28.83 0 29.65 -0.19 29.65 0C29.65 0.2 28.69 0.78 28 0.78" stroke="rgba(187, 187, 187, 0.5)" stroke-width="2"></path><path d="M40.21 14C40.71 12.11 41.26 10.5 42 10.5C42.69 10.5 42.69 12.21 43.06 14C44.52 20.96 46.05 21.55 45.66 28C45.52 30.28 43.93 31.46 42 31.46C39.8 31.46 37.66 30.51 37.4 28C36.76 21.78 38.41 20.86 40.21 14" stroke="rgba(187, 187, 187, 0.5)" stroke-width="2"></path><path d="M77.84 14C74.7 8.46 72.97 4.27 74.85 0C76.05 -2.73 79.43 0 84 0C91 0 91 0 98 0C100.14 0 102.28 -1.32 102.28 0C102.28 2.96 101.03 5.05 98 8.56C94.97 12.05 94.32 11.75 90.16 14C87.32 15.54 87.08 16.14 84 16.14C80.92 16.14 79.27 16.53 77.84 14" stroke="rgba(187, 187, 187, 0.5)" stroke-width="2"></path><path d="M154 7.95C151.67 7.95 148.35 2.52 148.35 0C148.35 -1.46 151.18 0 154 0C155.55 0 157.09 -1.06 157.09 0C157.09 2.92 156.04 7.95 154 7.95" stroke="rgba(187, 187, 187, 0.5)" stroke-width="2"></path><path d="M162.3 14C162.3 12.53 165.37 12.19 168 12.19C169.13 12.19 169.81 12.9 169.81 14C169.81 16.21 169.53 18.81 168 18.81C165.78 18.81 162.3 15.84 162.3 14" stroke="rgba(187, 187, 187, 0.5)" stroke-width="2"></path><path d="M196 3.3C194.13 3.3 192.37 0.95 192.37 0C192.37 -0.7 194.19 0 196 0C198.07 0 200.14 -0.72 200.14 0C200.14 0.93 198.02 3.3 196 3.3" stroke="rgba(187, 187, 187, 0.5)" stroke-width="2"></path><path d="M218.93 14C221.16 7.59 217.78 5.36 219.72 0C220.31 -1.64 221.86 0 224 0C229.5 0 234.04 -2.92 235 0C236.34 4.08 230.73 6.7 228.59 14C226.63 20.7 228.67 21.67 226.8 28C226.38 29.43 225.55 29.52 224 29.52C217.15 29.52 211.16 31.56 210 28C208.63 23.8 216.3 21.59 218.93 14" stroke="rgba(187, 187, 187, 0.5)" stroke-width="2"></path><path d="M266 2.84C264.21 2.84 263.02 0.82 263.02 0C263.02 -0.6 264.51 0 266 0C269.96 0 273.91 -0.69 273.91 0C273.91 0.73 269.65 2.84 266 2.84" stroke="rgba(187, 187, 187, 0.5)" stroke-width="2"></path><path d="M321.67 14C321.67 13.19 321.2 12.46 322 12.25C328.36 10.59 329.75 9.6 336 10.27C337.97 10.48 338.43 12 338.43 14C338.43 17.07 338.54 20.36 336 20.4C330.32 20.48 328.98 17.35 322 14.23C321.82 14.15 321.67 14.18 321.67 14" stroke="rgba(187, 187, 187, 0.5)" stroke-width="2"></path><path d="M396.24 14C395.96 8.45 400.45 6.63 405.07 0C405.33 -0.37 405.53 0 406 0C406.4 0 406.63 -0.35 406.8 0C409.99 6.65 412.97 8.01 412.71 14C412.57 17.13 409.52 18.24 406 18.24C401.28 18.24 396.42 17.57 396.24 14" stroke="rgba(187, 187, 187, 0.5)" stroke-width="2"></path><path d="M462 3.5C460.4 3.5 459.71 1.13 459.71 0C459.71 -0.62 460.86 0 462 0C465.32 0 468.63 -0.82 468.63 0C468.63 0.93 464.86 3.5 462 3.5" stroke="rgba(187, 187, 187, 0.5)" stroke-width="2"></path><path d="M470.79 14C470.79 10.39 472.26 5.63 476 5.38C481.87 4.99 483.24 8.79 490 12.73C490.64 13.1 490.8 13.37 490.8 14C490.8 14.59 490.68 15.04 490 15.17C483.28 16.46 482.76 17.25 476 16.84C473.16 16.67 470.79 16.12 470.79 14" stroke="rgba(187, 187, 187, 0.5)" stroke-width="2"></path><path d="M560 4.08C557.29 3.54 555.74 1.18 555.74 0C555.74 -0.86 557.87 0 560 0C567 0 567 0 574 0C581 0 581 0 588 0C591.21 0 594.42 -0.99 594.42 0C594.42 1.21 591.64 3.75 588 4.4C581.43 5.58 581 3.74 574 3.66C567 3.58 566.42 5.37 560 4.08" stroke="rgba(187, 187, 187, 0.5)" stroke-width="2"></path><path d="M627.47 14C627.47 12.47 628.57 11.47 630 11.47C631.98 11.47 634.29 12.25 634.29 14C634.29 16.7 631.8 20.36 630 20.36C628.39 20.36 627.47 16.92 627.47 14" stroke="rgba(187, 187, 187, 0.5)" stroke-width="2"></path><path d="M698.17 14C698.17 12.82 698.99 11.2 700 11.2C701.11 11.2 702.4 12.87 702.4 14C702.4 14.8 701.17 15.05 700 15.05C699.06 15.05 698.17 14.74 698.17 14" stroke="rgba(187, 187, 187, 0.5)" stroke-width="2"></path><path d="M724.97 14C724.97 9.04 726.01 8.17 728 2.8C728.6 1.17 728.54 0.32 730.15 0C735.54 -1.08 736.08 0 742 0C743.13 0 744.26 -0.81 744.26 0C744.26 2.54 744.07 3.98 742 6.7C738.74 10.98 738.19 11.06 733.6 14C731.19 15.54 730.71 15.67 728 15.67C726.4 15.67 724.97 15.48 724.97 14" stroke="rgba(187, 187, 187, 0.5)" stroke-width="2"></path><path d="M764.45 14C764.45 12.2 766.93 11.03 770 10.73C776.7 10.07 777.09 10.98 784 12.09C787.24 12.61 790.3 12.26 790.3 14C790.3 16.36 787.92 19.48 784 20.3C777.77 21.61 776.54 20.37 770 18.26C766.77 17.22 764.45 15.96 764.45 14" stroke="rgba(187, 187, 187, 0.5)" stroke-width="2"></path><path d="M878.3 14C878.3 11.11 879.57 8.89 882 8.89C886.15 8.89 891.47 10.33 891.47 14C891.47 19.6 885.56 27.42 882 27.42C878.98 27.42 878.3 20.38 878.3 14" stroke="rgba(187, 187, 187, 0.5)" stroke-width="2"></path><path d="M938 10.64C935.03 10.64 930.4 3.36 930.4 0C930.4 -1.96 934.2 0 938 0C939.7 0 941.41 -1.24 941.41 0C941.41 4.08 940.54 10.64 938 10.64" stroke="rgba(187, 187, 187, 0.5)" stroke-width="2"></path><path d="M987.72 14C987.72 12.31 990.74 10.57 994 10.57C998.43 10.57 1003.1 12.31 1003.1 14C1003.1 15.68 998.44 17.31 994 17.31C990.75 17.31 987.72 15.68 987.72 14" stroke="rgba(187, 187, 187, 0.5)" stroke-width="2"></path><path d="M1050 6.63C1045.49 6.63 1038.55 1.78 1038.55 0C1038.55 -1.54 1044.28 0 1050 0C1051.19 0 1052.38 -0.84 1052.38 0C1052.38 2.48 1052.4 6.63 1050 6.63" stroke="rgba(187, 187, 187, 0.5)" stroke-width="2"></path><path d="M1103.52 14C1106.16 7.82 1103.41 6.34 1104.53 0C1104.65 -0.66 1105.26 0 1106 0C1106.84 0 1107.4 -0.72 1107.67 0C1110.05 6.28 1110.45 6.89 1111.3 14C1112.13 20.89 1111.51 21.02 1111.03 28C1110.55 35.02 1110.85 35.15 1109.39 42C1108.34 46.92 1107.82 51.55 1106 51.55C1104.14 51.55 1104.59 46.47 1102.04 42C1097.88 34.69 1092.22 34.82 1092.58 28C1092.96 20.82 1100.18 21.82 1103.52 14" stroke="rgba(187, 187, 187, 0.5)" stroke-width="2"></path><path d="M1131.93 14C1131.93 13.13 1132.83 12.07 1134 12.07C1135.73 12.07 1137.73 13.16 1137.73 14C1137.73 14.79 1135.79 15.33 1134 15.33C1132.89 15.33 1131.93 14.76 1131.93 14" stroke="rgba(187, 187, 187, 0.5)" stroke-width="2"></path><path d="M1148 5.89C1146.59 5.89 1144.61 1.96 1144.61 0C1144.61 -0.98 1146.3 0 1148 0C1149 0 1150 -0.72 1150 0C1150 2.23 1149.29 5.89 1148 5.89" stroke="rgba(187, 187, 187, 0.5)" stroke-width="2"></path><path d="M1218 0.46C1217.5 0.46 1217 0.12 1217 0C1217 -0.11 1217.5 0 1218 0C1218.52 0 1219.04 -0.11 1219.04 0C1219.04 0.12 1218.52 0.46 1218 0.46" stroke="rgba(187, 187, 187, 0.5)" stroke-width="2"></path><path d="M1274 3.59C1271.99 3.59 1269.76 1.02 1269.76 0C1269.76 -0.78 1271.88 0 1274 0C1275.64 0 1277.29 -0.72 1277.29 0C1277.29 1.07 1275.76 3.59 1274 3.59" stroke="rgba(187, 187, 187, 0.5)" stroke-width="2"></path><path d="M1285.28 14C1285.28 12.31 1286.68 11.52 1288 11.52C1289.22 11.52 1290.36 12.4 1290.36 14C1290.36 20.64 1289.27 28 1288 28C1286.73 28 1285.28 20.55 1285.28 14" stroke="rgba(187, 187, 187, 0.5)" stroke-width="2"></path><path d="M1385.69 14C1385.69 13.7 1385.85 13.39 1386 13.39C1386.15 13.39 1386.3 13.7 1386.3 14C1386.3 14.24 1386.15 14.47 1386 14.47C1385.85 14.47 1385.69 14.24 1385.69 14" stroke="rgba(187, 187, 187, 0.5)" stroke-width="2"></path><path d="M1409.61 14C1412.08 7.58 1409.51 5.9 1411.36 0C1411.71 -1.1 1412.68 0 1414 0C1421 0 1421 0 1428 0C1429.91 0 1431.46 -1.5 1431.82 0C1433.14 5.5 1432.63 7.29 1431.35 14C1430.72 17.27 1430.14 17.33 1428 19.96C1424.44 24.33 1422.36 23.11 1419.96 28C1416.95 34.13 1419.26 35.27 1417.18 42C1416.28 44.91 1416.6 46.86 1414 47.28C1408.01 48.26 1406.94 46.3 1400 44.8C1394.69 43.66 1389.5 45.07 1389.5 42C1389.5 37.37 1394.93 35.81 1400 29.4C1400.47 28.81 1400.18 28.64 1400.58 28C1404.98 20.94 1406.69 21.58 1409.61 14" stroke="rgba(187, 187, 187, 0.5)" stroke-width="2"></path><path d="M1479.58 14C1482.49 7.8 1479.99 6.11 1481.92 0C1482.2 -0.89 1482.96 0 1484 0C1485.03 0 1485.24 -0.59 1486.05 0C1492.24 4.5 1492.16 4.95 1498 10.18C1499.98 11.95 1501.69 11.66 1501.69 14C1501.69 19.36 1500.8 20.56 1498 25.59C1496.9 27.56 1495.97 26.85 1493.88 28C1488.97 30.68 1488.17 29.72 1484 33.25C1479.9 36.72 1479.19 37.02 1477.33 42C1474.95 48.39 1478.16 50.97 1475.53 56C1474.5 57.97 1472.76 56 1470 56C1468.64 56 1467.55 57.14 1467.27 56C1465.84 50.14 1466.22 48.96 1466.58 42C1466.95 34.96 1467.31 34.89 1468.73 28C1469.02 26.58 1469.11 26.53 1470 25.38C1474.54 19.53 1476.53 20.49 1479.58 14" stroke="rgba(187, 187, 187, 0.5)" stroke-width="2"></path><path d="M1596 5.17C1592.8 5.17 1589.41 1.45 1589.41 0C1589.41 -1.14 1592.7 0 1596 0C1598.85 0 1601.69 -1.1 1601.69 0C1601.69 1.49 1598.94 5.17 1596 5.17" stroke="rgba(187, 187, 187, 0.5)" stroke-width="2"></path><path d="M1637.7 14C1637.7 13.66 1637.64 13.43 1638 13.26C1644.79 10.09 1646.21 7.07 1652 7.32C1654.82 7.44 1655.23 10.87 1655.23 14C1655.23 16.09 1654.21 17.74 1652 17.77C1645.59 17.87 1644.96 16.1 1638 14.27C1637.81 14.22 1637.7 14.17 1637.7 14" stroke="rgba(187, 187, 187, 0.5)" stroke-width="2"></path><path d="M1708 2.59C1702.46 2.59 1694.78 0.65 1694.78 0C1694.78 -0.64 1702.47 -1.08 1708 0C1709.08 0.21 1709.07 2.59 1708 2.59" stroke="rgba(187, 187, 187, 0.5)" stroke-width="2"></path><path d="M151.05 28C151.05 25.08 152.15 22 154 22C156.17 22 159.09 25.16 159.09 28C159.09 30.49 156.23 32.67 154 32.67C152.21 32.67 151.05 30.41 151.05 28" stroke="rgba(187, 187, 187, 0.5)" stroke-width="2"></path><path d="M250.17 28C250.17 26.93 250.83 26.38 252 26.38C258.75 26.38 266 26.17 266 28C266 29.98 257.61 34 252 34C249.69 34 250.17 30.74 250.17 28" stroke="rgba(187, 187, 187, 0.5)" stroke-width="2"></path><path d="M369.53 28C370.45 23.89 374.28 22.15 378 22.15C380.58 22.15 380.9 24.7 382.13 28C384.59 34.62 386.39 35.4 385.37 42C384.33 48.76 381.08 54.73 378 54.73C375.18 54.73 375.6 48.42 373.56 42C371.36 35.06 368.23 33.82 369.53 28" stroke="rgba(187, 187, 187, 0.5)" stroke-width="2"></path><path d="M429.9 28C430.48 25.58 431.76 24.55 434 24.55C437.12 24.55 440.07 25.03 440.61 28C441.65 33.75 437.69 34.91 437.15 42C436.62 48.91 439.67 50.69 438.48 56C438.1 57.69 436.24 56 434 56C427.78 56 422.47 59.04 421.56 56C420.37 52.04 427.56 49.52 429.8 42C431.73 35.52 428.38 34.31 429.9 28" stroke="rgba(187, 187, 187, 0.5)" stroke-width="2"></path><path d="M461.3 28C461.32 27.58 461.72 27.5 462 27.5C462.18 27.5 462.03 27.81 462.22 28C469.03 34.84 469.06 34.84 476 41.57C476.28 41.84 476.65 41.68 476.65 42C476.65 42.83 476.9 43.85 476 43.87C469.58 44.04 468.96 43.26 462 42.38C461.54 42.32 461.17 42.45 461.15 42C460.82 35.26 460.9 34.83 461.3 28" stroke="rgba(187, 187, 187, 0.5)" stroke-width="2"></path><path d="M499.63 28C500.07 25.59 501.87 24.74 504 24.74C505.97 24.74 506.13 26.16 507.84 28C513.13 33.68 512.59 34.27 518 39.78C519.47 41.27 521.59 40.52 521.59 42C521.59 44.22 520.71 46.74 518 47.19C511.91 48.21 510.58 46.94 504 44.95C501.99 44.34 501.34 44 500.83 42C499.16 35.52 498.49 34.22 499.63 28" stroke="rgba(187, 187, 187, 0.5)" stroke-width="2"></path><path d="M568.4 28C568.4 27.56 571.24 27.19 574 27.19C575.12 27.19 576.15 27.57 576.15 28C576.15 28.45 575.13 28.95 574 28.95C571.26 28.95 568.4 28.44 568.4 28" stroke="rgba(187, 187, 187, 0.5)" stroke-width="2"></path><path d="M596.56 28C596.56 25.88 598.71 22.77 602 22.7C608.43 22.57 608.99 25.19 616 27.6C616.69 27.84 617.4 27.58 617.4 28C617.4 28.65 617.06 29.6 616 29.75C609.36 30.71 608.85 30.85 602 30.23C599.13 29.97 596.56 29.64 596.56 28" stroke="rgba(187, 187, 187, 0.5)" stroke-width="2"></path><path d="M738.73 28C738.73 23.96 739.59 19.6 742 19.6C745.04 19.6 749.64 24.26 749.64 28C749.64 31.03 745.28 33.14 742 33.14C739.83 33.14 738.73 30.73 738.73 28" stroke="rgba(187, 187, 187, 0.5)" stroke-width="2"></path><path d="M822.64 28C822.64 25.09 824.08 22.31 826 22.31C828.16 22.31 830.8 25.05 830.8 28C830.8 31.32 828.13 34.86 826 34.86C824.05 34.86 822.64 31.36 822.64 28" stroke="rgba(187, 187, 187, 0.5)" stroke-width="2"></path><path d="M963.67 28C964.01 27 964.83 27.79 966 27.79C967.75 27.79 968.96 26.59 969.5 28C971.68 33.69 972.5 35.52 971.44 42C970.75 46.19 968.6 49.35 966 49.35C963.51 49.35 961.7 46.07 961.26 42C960.54 35.39 961.64 34.1 963.67 28" stroke="rgba(187, 187, 187, 0.5)" stroke-width="2"></path><path d="M1076.8 28C1076.8 27.4 1077.26 27.07 1078 27.07C1083.11 27.07 1088.5 27.19 1088.5 28C1088.5 28.82 1082.7 30.33 1078 30.33C1076.85 30.33 1076.8 29.03 1076.8 28" stroke="rgba(187, 187, 187, 0.5)" stroke-width="2"></path><path d="M1164.33 28C1164.38 23.77 1170.56 21.91 1176 21.91C1179.73 21.91 1182.48 24.24 1182.67 28C1182.98 34.29 1180.12 35.31 1177 42C1176.78 42.46 1176.45 42.3 1176 42.3C1175.84 42.3 1175.89 42.15 1175.77 42C1170.05 35 1164.26 33.81 1164.33 28" stroke="rgba(187, 187, 187, 0.5)" stroke-width="2"></path><path d="M1326.34 28C1326.76 25.38 1328.16 23.71 1330 23.71C1331.84 23.71 1333.03 25.37 1333.7 28C1335.36 34.51 1332.1 35.88 1334.67 42C1337.25 48.13 1339.26 47.32 1344 52.5C1345.67 54.32 1347.5 54.97 1347.5 56C1347.5 56.72 1345.75 56 1344 56C1337 56 1337 56 1330 56C1325.17 56 1320.9 58.68 1320.34 56C1319.45 51.68 1325.52 49.36 1327.1 42C1328.52 35.36 1325.31 34.52 1326.34 28" stroke="rgba(187, 187, 187, 0.5)" stroke-width="2"></path><path d="M1566.44 28C1566.44 26.33 1567.2 24.94 1568 24.94C1568.81 24.94 1569.66 26.31 1569.66 28C1569.66 34.84 1568.81 42 1568 42C1567.2 42 1566.44 34.86 1566.44 28" stroke="rgba(187, 187, 187, 0.5)" stroke-width="2"></path><path d="M1673.37 28C1676.04 24.41 1676.94 21.85 1680 21.85C1682.63 21.85 1682.61 24.77 1684.75 28C1689.29 34.84 1694.51 35.87 1693.36 42C1692.14 48.53 1687.02 48.19 1680 53.31C1677.43 55.19 1677.25 55.41 1674.17 56C1670.25 56.75 1670.09 56 1666 56C1664.56 56 1663.18 57.18 1663.12 56C1662.84 50.18 1664.01 48.93 1665.32 42C1665.45 41.3 1665.64 41.35 1666 40.73C1669.67 34.35 1669.04 33.85 1673.37 28" stroke="rgba(187, 187, 187, 0.5)" stroke-width="2"></path><path d="M0 36.5C5.06 35.58 7.71 37.14 14 39.45C15.2 39.89 14.97 40.85 14.97 42C14.97 42.53 14.6 42.65 14 42.8C7.12 44.51 5.56 46.03 0 45.71C-1.44 45.63 0 43.86 0 42C0 39.25 -1.94 36.85 0 36.5" stroke="rgba(187, 187, 187, 0.5)" stroke-width="2"></path><path d="M67.45 42C67.89 40.73 68.87 40.73 70 40.73C70.64 40.73 70.48 41.38 71 42C76.82 49.01 82.96 51.87 82.67 56C82.46 58.87 76.34 56 70 56C67.34 56 65.03 57.9 64.68 56C63.75 50.9 65.23 48.36 67.45 42" stroke="rgba(187, 187, 187, 0.5)" stroke-width="2"></path><path d="M136 42C136 41.11 138.03 39.89 140 39.89C141.78 39.89 143.5 41.1 143.5 42C143.5 42.83 141.76 43.35 140 43.35C138.01 43.35 136 42.84 136 42" stroke="rgba(187, 187, 187, 0.5)" stroke-width="2"></path><path d="M164.84 42C164.84 39.86 166.63 38.5 168 38.5C169.15 38.5 169.88 40.09 169.88 42C169.88 47.96 169.25 54.25 168 54.25C166.73 54.25 164.84 47.74 164.84 42" stroke="rgba(187, 187, 187, 0.5)" stroke-width="2"></path><path d="M319.38 42C319.38 41.28 320.72 41.33 322 41.33C322.81 41.33 323.56 41.4 323.56 42C323.56 43.13 322.95 44.8 322 44.8C320.86 44.8 319.38 43.02 319.38 42" stroke="rgba(187, 187, 187, 0.5)" stroke-width="2"></path><path d="M346.5 42C346.5 39.41 348.51 36.11 350 36.11C351.36 36.11 352.2 39.25 352.2 42C352.2 43.49 351.25 44.6 350 44.6C348.4 44.6 346.5 43.65 346.5 42" stroke="rgba(187, 187, 187, 0.5)" stroke-width="2"></path><path d="M554.94 42C555.46 36.91 557.98 32.42 560 32.42C561.85 32.42 561.79 37.12 562.68 42C563.94 48.91 565.34 50.64 564.31 56C564 57.64 562.15 56 560 56C558.79 56 557.94 57.02 557.57 56C555.41 50.02 554.25 48.7 554.94 42" stroke="rgba(187, 187, 187, 0.5)" stroke-width="2"></path><path d="M584 42C584 38.47 586.16 35 588 35C589.76 35 591.21 38.48 591.21 42C591.21 45.73 589.77 49.51 588 49.51C586.16 49.51 584 45.73 584 42" stroke="rgba(187, 187, 187, 0.5)" stroke-width="2"></path><path d="M628.25 42C628.25 41.08 629.32 40.6 630 40.6C630.45 40.6 630.5 41.27 630.5 42C630.5 43.97 630.54 46 630 46C629.42 46 628.25 43.78 628.25 42" stroke="rgba(187, 187, 187, 0.5)" stroke-width="2"></path><path d="M665.47 42C665.47 38.53 669.5 36.24 672 36.24C673.75 36.24 673.96 39.04 673.96 42C673.96 48.04 674 54.25 672 54.25C669.76 54.25 665.47 47.53 665.47 42" stroke="rgba(187, 187, 187, 0.5)" stroke-width="2"></path><path d="M838.07 42C838.07 41.5 839.15 40.88 840 40.88C840.53 40.88 840.84 41.48 840.84 42C840.84 42.44 840.49 42.8 840 42.8C839.11 42.8 838.07 42.46 838.07 42" stroke="rgba(187, 187, 187, 0.5)" stroke-width="2"></path><path d="M918 42C918 41.2 921.08 41.21 924 40C931.08 37.08 932.16 33.13 938 33.74C941.68 34.13 943.03 37.62 943.03 42C943.03 48.75 942.18 55.75 938 56C932.66 56.32 931.57 48.45 924 43.15C921.57 41.45 918 42.77 918 42" stroke="rgba(187, 187, 187, 0.5)" stroke-width="2"></path><path d="M1007.16 42C1007.16 41.54 1007.62 41.22 1008 41.22C1008.33 41.22 1008.58 41.57 1008.58 42C1008.58 42.74 1008.34 43.56 1008 43.56C1007.63 43.56 1007.16 42.71 1007.16 42" stroke="rgba(187, 187, 187, 0.5)" stroke-width="2"></path><path d="M1441.8 42C1441.8 41.78 1441.9 41.59 1442 41.59C1442.1 41.59 1442.2 41.78 1442.2 42C1442.2 42.49 1442.1 43 1442 43C1441.9 43 1441.8 42.49 1441.8 42" stroke="rgba(187, 187, 187, 0.5)" stroke-width="2"></path><path d="M1511.05 42C1511.05 38.19 1509.33 34.74 1512 34C1516.81 32.66 1519.5 35.01 1526 37.83C1528.73 39.01 1530.45 40.14 1530.45 42C1530.45 43.59 1528.49 44.61 1526 44.72C1519.26 45 1518.88 44.03 1512 42.78C1511.4 42.67 1511.05 42.58 1511.05 42" stroke="rgba(187, 187, 187, 0.5)" stroke-width="2"></path><path d="M33.13 56C33.13 55.23 37.71 53.01 42 53.01C44.8 53.01 47.32 55.2 47.32 56C47.32 56.7 44.66 56 42 56C37.56 56 33.13 56.73 33.13 56" stroke="rgba(187, 187, 187, 0.5)" stroke-width="2"></path><path d="M250.85 56C250.85 52.3 251.33 47.6 252 47.6C252.67 47.6 253.53 52.44 253.53 56C253.53 56.64 252.76 56 252 56C251.43 56 250.85 56.5 250.85 56" stroke="rgba(187, 187, 187, 0.5)" stroke-width="2"></path><path d="M290.22 56C290.22 53.11 290.52 49.16 294 47.79C299.41 45.66 301.81 46.61 308 49C312.45 50.72 315.28 53.97 315.28 56C315.28 57.47 311.64 56 308 56C301 56 301 56 294 56C292.11 56 290.22 57.21 290.22 56" stroke="rgba(187, 187, 187, 0.5)" stroke-width="2"></path><path d="M530.53 56C530.53 55.76 531.35 55.1 532 55.1C532.43 55.1 532.7 55.72 532.7 56C532.7 56.17 532.35 56 532 56C531.26 56 530.53 56.21 530.53 56" stroke="rgba(187, 187, 187, 0.5)" stroke-width="2"></path><path d="M595 56C595 55.26 598.44 54.41 602 53.14C608.94 50.67 609.45 47.77 616 48.53C621.79 49.2 626.67 53.95 626.67 56C626.67 57.68 621.34 56 616 56C609 56 609 56 602 56C598.5 56 595 56.69 595 56" stroke="rgba(187, 187, 187, 0.5)" stroke-width="2"></path><path d="M781.74 56C781.74 54.54 782.59 51.72 784 51.72C785.7 51.72 787.95 54.72 787.95 56C787.95 56.86 785.97 56 784 56C782.87 56 781.74 56.68 781.74 56" stroke="rgba(187, 187, 187, 0.5)" stroke-width="2"></path><path d="M810.25 56C810.25 55.27 811.17 53.67 812 53.67C812.8 53.67 813.51 55.25 813.51 56C813.51 56.41 812.76 56 812 56C811.13 56 810.25 56.44 810.25 56" stroke="rgba(187, 187, 187, 0.5)" stroke-width="2"></path><path d="M850.38 56C850.38 54.9 852.06 52.26 854 52.26C856.24 52.26 858.74 54.95 858.74 56C858.74 56.82 856.37 56 854 56C852.19 56 850.38 56.77 850.38 56" stroke="rgba(187, 187, 187, 0.5)" stroke-width="2"></path><path d="M972.65 56C972.65 54.49 975.89 50.82 980 50.56C986.56 50.15 987.1 52.36 994 54.65C995.31 55.08 996.41 55.64 996.41 56C996.41 56.31 995.2 56 994 56C987 56 987 56 980 56C976.33 56 972.65 57.21 972.65 56" stroke="rgba(187, 187, 187, 0.5)" stroke-width="2"></path><path d="M1090.38 56C1090.38 55.72 1091.11 54.98 1092 54.98C1094.02 54.98 1096.2 55.74 1096.2 56C1096.2 56.25 1094.1 56 1092 56C1091.19 56 1090.38 56.23 1090.38 56" stroke="rgba(187, 187, 187, 0.5)" stroke-width="2"></path><path d="M1157.33 56C1157.33 55.49 1159.8 54.03 1162 54.03C1163.38 54.03 1164.5 55.45 1164.5 56C1164.5 56.43 1163.25 56 1162 56C1159.66 56 1157.33 56.47 1157.33 56" stroke="rgba(187, 187, 187, 0.5)" stroke-width="2"></path><path d="M1197.74 56C1197.74 54.22 1200.98 49.88 1204 49.88C1206.83 49.88 1209.44 54.16 1209.44 56C1209.44 57.22 1206.72 56 1204 56C1200.87 56 1197.74 57.28 1197.74 56" stroke="rgba(187, 187, 187, 0.5)" stroke-width="2"></path><path d="M1301.32 56C1301.32 55.8 1301.56 55.32 1302 55.32C1303.65 55.32 1305.5 55.83 1305.5 56C1305.5 56.17 1303.75 56 1302 56C1301.66 56 1301.32 56.14 1301.32 56" stroke="rgba(187, 187, 187, 0.5)" stroke-width="2"></path><path d="M1705.67 56C1705.67 55.73 1707.17 54.98 1708 54.98C1708.33 54.98 1708.35 55.84 1708 56C1707.19 56.35 1705.67 56.24 1705.67 56" stroke="rgba(187, 187, 187, 0.5)" stroke-width="2"></path></g><defs><mask id="SvgjsMask1031"><rect width="1700" height="55" fill="#ffffff"></rect></mask></defs></svg>